<svg xmlns="http://www.w3.org/2000/svg" width="238" height="259"><defs><linearGradient x1="58.5625014%" y1="50%" x2="42.7227927%" y2="50%" id="A"><stop stop-color="#946be4" offset="0%"/><stop stop-color="#f8922c" offset="100%"/></linearGradient></defs><path d="M2.884 79.863C1.651 74.479.199 69.522 1.06 62.503c7.443 10.671 16.074 17.683 28.042 21.426-1.088-3.057-3.242-4.336-4.892-5.914C13.677 67.939 5.941 56.247 4.426 41.446 3.305 30.493 6.368 20.272 11.08 10.627c2.491.401 2.647 1.923 3.09 3.09 5.398 14.209 15.405 24.255 28.285 31.859 9.638 5.69 20.003 9.892 29.895 15.05 24.716 12.887 38.215 33.097 39.026 61.112 1.264 43.64.273 87.298.574 130.947.024 3.467-.766 5.818-5.016 5.57-29.14-1.704-54.337-11.235-71.771-36.108-8.514-12.147-11.896-25.901-12.012-40.566l-.129-33.491c-.003-1.639-.167-3.374 1.729-4.978 8.872 2.203 15.028 8.168 19.807 15.835 3.771 6.05 5.228 12.923 6.615 19.794.828 4.099 1.874 8.136 4.045 11.752 5.682 9.463 17.889 9.427 22.991-.334 4.995-9.555 3.398-19.494-.086-29.086-4.012-11.045-12.03-19.045-21.226-25.942-8.266-6.199-16.848-11.943-25.578-17.472-14.095-8.927-23.478-21.454-28.436-37.796z" fill="#ef712b"/><path d="M230.162 71.153c2.539-2.285 3.333-5.726 6.678-7.24 1.597 3.682.502 7.102-.14 10.394-3.804 19.485-15.132 33.689-31.431 44.376-10.997 7.211-22.456 13.86-31.827 23.233-11.513 11.514-18.166 25.001-15.179 41.849 1.345 7.584 6.414 13.03 12.608 13.77 5.868.701 12.351-3.876 14.805-11.248 1.779-5.342 2.617-10.992 4.005-16.472 2.925-11.546 9.172-20.636 19.997-26.102 4.857-2.453 6.374-1.523 6.3 3.909-.186 13.654.864 27.345-.529 40.958-2.833 27.685-17.498 47.21-42.058 59.624-12.692 6.415-26.311 9.2-40.417 10.107-4.269.274-6.01-1.146-5.999-5.576l.183-130.469c.236-27.958 14.26-47.871 38.335-61.075 11.959-6.559 24.857-11.356 36.063-19.353 9.871-7.045 17.467-15.858 21.97-27.212.529-1.335.742-2.956 3.432-3.786 6.422 12.41 8.707 25.304 5.232 39.098-3.432 13.62-12.85 23.28-22.164 33.101 8.067-1.614 14.186-6.27 20.136-11.887z" fill="#6a4ca4"/><path d="M128.16 43.022l-6.095 9.558c-1.6 2.423-3.321 2.529-5.041.079-12.301-17.525-17.102-28.314-1.465-49.08 2.533-3.364 4.689-3.769 7.378-.27 11.752 15.29 13.176 25.762 5.222 39.714z" fill="url(#A)"/><path d="M122.629 78.844c.917-8.816 3.01-16.852 7.386-24.096 5.511-9.122 11.346-18.062 11.898-29.183 6.99 1.603 13.003 10.123 14.441 18.978 1.121 6.904-.055 11.626-6.905 15.634-11.332 6.629-19.199 16.793-23.659 29.355-.466 1.313-.41 3.092-2.893 3.672-2.021-4.6-.682-9.288-.268-14.36z" fill="#8662cc"/><path d="M87.434 32.578c2.643-3.143 4.606-6.543 9.485-7.83.969 14.947 11.067 25.831 15.877 38.991 2.817 7.707 4.025 15.774 4.22 23.968.041 1.723.483 3.713-1.434 4.954-2.124-.469-2.142-2.438-2.664-3.883-4.346-12.028-12.174-21.243-22.614-28.406-8.082-5.546-9.385-9.219-6.839-18.84.816-3.083 2.006-5.985 3.97-8.954z" fill="#f7932f"/></svg>
